# xmcd
#
# Track frame offsets:
#	150
#	18153
#	35720
#	55455
#	76812
#	97951
#	116581
#	143181
#	159919
#	170432
#
# Disc length: 2604 seconds
#
# Revision: 0
# Processed by: cddbd v1.4PL0 Copyright (c) Steve Scherf et al.
# Submitted via: dBpowerAMP V4.0
#
DISCID=760a2a0a
DTITLE=Mike Bloomfield - Greatest Hits
DYEAR=1900
DGENRE=Blues
TTITLE0=Hully Gully
TTITLE1=Wings of an Angel
TTITLE2=Walkin' the Floor
TTITLE3=Junko Partner
TTITLE4=Women Lovin' Each Other
TTITLE5=Don't You Lie to Me
TTITLE6=Knockin' Myself Out
TTITLE7=Cherry Red
TTITLE8=Rx for the Blues
TTITLE9=You Must Have Jesus
EXTD=
EXTT0=
EXTT1=
EXTT2=
EXTT3=
EXTT4=
EXTT5=
EXTT6=
EXTT7=
EXTT8=
EXTT9=
PLAYORDER=
